<svg xmlns="http://www.w3.org/2000/svg" width="1440" height="1024" viewBox="0 0 1440 1024">
    <g fill="none" fill-rule="evenodd">
        <path fill="#A396C7" d="M1520.597 28.422l-181 237 194 29z"/>
        <path stroke="#A396C7" stroke-width="1.51" d="M1520.597 28.422l-181 237 194 29z"/>
        <path fill="#8D79B7" d="M1351.597 733.422l187 36 5-313z"/>
        <path stroke="#8D79B7" stroke-width="1.51" d="M1351.597 733.422l187 36 5-313z"/>
        <path fill="#B4A4CF" d="M1504.597-272.578l-271 284 287 17z"/>
        <path stroke="#B4A4CF" stroke-width="1.51" d="M1504.597-272.578l-271 284 287 17z"/>
        <path fill="#8C69AF" d="M1351.597 733.422l127 335 60-299z"/>
        <path stroke="#8C69AF" stroke-width="1.51" d="M1351.597 733.422l127 335 60-299z"/>
        <path fill="#8C65AE" d="M1351.597 733.422l-58 351 185-16z"/>
        <path stroke="#8C65AE" stroke-width="1.51" d="M1351.597 733.422l-58 351 185-16z"/>
        <path fill="#BAACD4" d="M1353.597-340.578l-120 352 271-284z"/>
        <path stroke="#BAACD4" stroke-width="1.51" d="M1353.597-340.578l-120 352 271-284z"/>
        <path fill="#9187BE" d="M1222.597 456.422l129 277 192-277z"/>
        <path stroke="#9187BE" stroke-width="1.51" d="M1222.597 456.422l129 277 192-277z"/>
        <path fill="#9A8FC3" d="M1533.597 294.422l-194-29 204 191z"/>
        <path stroke="#9A8FC3" stroke-width="1.51" d="M1533.597 294.422l-194-29 204 191z"/>
        <path fill="#9692C4" d="M1339.597 265.422l-117 191h321z"/>
        <path stroke="#9692C4" stroke-width="1.51" d="M1339.597 265.422l-117 191h321z"/>
        <path fill="#A89FCC" d="M1233.597 11.422l106 254 181-237z"/>
        <path stroke="#A89FCC" stroke-width="1.51" d="M1233.597 11.422l106 254 181-237z"/>
        <path fill="#8D6FB2" d="M1061.597 1009.422l232 75 58-351z"/>
        <path stroke="#8D6FB2" stroke-width="1.51" d="M1061.597 1009.422l232 75 58-351z"/>
        <path fill="#8D7FBA" d="M1074.597 677.422l-13 332 290-276z"/>
        <path stroke="#8D7FBA" stroke-width="1.51" d="M1074.597 677.422l-13 332 290-276z"/>
        <path fill="#8D8BC0" d="M1222.597 456.422l-148 221 277 56z"/>
        <path stroke="#8D8BC0" stroke-width="1.51" d="M1222.597 456.422l-148 221 277 56z"/>
        <path fill="#B9B5D7" d="M1079.597-214.578l154 226 120-352z"/>
        <path stroke="#B9B5D7" stroke-width="1.51" d="M1079.597-214.578l154 226 120-352z"/>
        <path fill="#979CCA" d="M1068.597 421.422l154 35 117-191z"/>
        <path stroke="#979CCA" stroke-width="1.51" d="M1068.597 421.422l154 35 117-191z"/>
        <path fill="#A3A8D0" d="M1233.597 11.422l-296 241 402 13z"/>
        <path stroke="#A3A8D0" stroke-width="1.51" d="M1233.597 11.422l-296 241 402 13z"/>
        <path fill="#9AA5CE" d="M937.597 252.422l131 169 271-156z"/>
        <path stroke="#9AA5CE" stroke-width="1.51" d="M937.597 252.422l131 169 271-156z"/>
        <path fill="#8C67AE" d="M1061.597 1009.422l129 178 103-103z"/>
        <path stroke="#8C67AE" stroke-width="1.51" d="M1061.597 1009.422l129 178 103-103z"/>
        <path fill="#9198C7" d="M1068.597 421.422l6 256 148-221z"/>
        <path stroke="#9198C7" stroke-width="1.51" d="M1068.597 421.422l6 256 148-221z"/>
        <path fill="#A9B3D6" d="M995.597-22.578l-58 275 296-241z"/>
        <path stroke="#A9B3D6" stroke-width="1.51" d="M995.597-22.578l-58 275 296-241z"/>
        <path fill="#B4B8D8" d="M1079.597-214.578l-84 192 238 34z"/>
        <path stroke="#B4B8D8" stroke-width="1.51" d="M1079.597-214.578l-84 192 238 34z"/>
        <path fill="#8C6AB0" d="M1061.597 1009.422l-102 189 231-11z"/>
        <path stroke="#8C6AB0" stroke-width="1.51" d="M1061.597 1009.422l-102 189 231-11z"/>
        <path fill="#919FCA" d="M1068.597 421.422l-265 85 271 171z"/>
        <path stroke="#919FCA" stroke-width="1.51" d="M1068.597 421.422l-265 85 271 171z"/>
        <path fill="#8D89BF" d="M826.597 738.422l235 271 13-332z"/>
        <path stroke="#8D89BF" stroke-width="1.51" d="M826.597 738.422l235 271 13-332z"/>
        <path fill="#9189BF" d="M826.597 738.422l-125 203 360 68z"/>
        <path stroke="#9189BF" stroke-width="1.51" d="M826.597 738.422l-125 203 360 68z"/>
        <path fill="#8F9BC9" d="M803.597 506.422l23 232 248-61z"/>
        <path stroke="#8F9BC9" stroke-width="1.51" d="M803.597 506.422l23 232 248-61z"/>
        <path fill="#97ACD1" d="M937.597 252.422l-134 254 265-85z"/>
        <path stroke="#97ACD1" stroke-width="1.51" d="M937.597 252.422l-134 254 265-85z"/>
        <path fill="#907AB8" d="M701.597 941.422l258 257 102-189z"/>
        <path stroke="#907AB8" stroke-width="1.51" d="M701.597 941.422l258 257 102-189z"/>
        <path fill="#A8BAD9" d="M766.597 178.422l171 74 58-275z"/>
        <path stroke="#A8BAD9" stroke-width="1.51" d="M766.597 178.422l171 74 58-275z"/>
        <path fill="#B2C4DF" d="M657.597-76.578l109 255 229-201z"/>
        <path stroke="#B2C4DF" stroke-width="1.51" d="M657.597-76.578l109 255 229-201z"/>
        <path fill="#9FB6D7" d="M766.597 178.422l37 328 134-254z"/>
        <path stroke="#9FB6D7" stroke-width="1.51" d="M766.597 178.422l37 328 134-254z"/>
        <path fill="#9277B6" d="M701.597 941.422l66 404 192-147z"/>
        <path stroke="#9277B6" stroke-width="1.51" d="M701.597 941.422l66 404 192-147z"/>
        <path fill="#9681BC" d="M701.597 941.422l-148 147 214 257z"/>
        <path stroke="#9681BC" stroke-width="1.51" d="M701.597 941.422l-148 147 214 257z"/>
        <path fill="#A5C0DD" d="M766.597 178.422l-345 1 382 327z"/>
        <path stroke="#A5C0DD" stroke-width="1.51" d="M766.597 178.422l-345 1 382 327z"/>
        <path fill="#A2BCDA" d="M421.597 179.422l5 410 377-83z"/>
        <path stroke="#A2BCDA" stroke-width="1.51" d="M421.597 179.422l5 410 377-83z"/>
        <path fill="#94A6CE" d="M803.597 506.422l-311 184 334 48z"/>
        <path stroke="#94A6CE" stroke-width="1.51" d="M803.597 506.422l-311 184 334 48z"/>
        <path fill="#969BC9" d="M492.597 690.422l209 251 125-203z"/>
        <path stroke="#969BC9" stroke-width="1.51" d="M492.597 690.422l209 251 125-203z"/>
        <path fill="#B6CCE3" d="M657.597-76.578l-86 39 195 216z"/>
        <path stroke="#B6CCE3" stroke-width="1.51" d="M657.597-76.578l-86 39 195 216z"/>
        <path fill="#9BAFD3" d="M426.597 589.422l66 101 311-184z"/>
        <path stroke="#9BAFD3" stroke-width="1.51" d="M426.597 589.422l66 101 311-184z"/>
        <path fill="#B4CBE2" d="M571.597-37.578l-150 217 345-1z"/>
        <path stroke="#B4CBE2" stroke-width="1.51" d="M571.597-37.578l-150 217 345-1z"/>
        <path fill="#9A95C6" d="M492.597 690.422l61 398 148-147z"/>
        <path stroke="#9A95C6" stroke-width="1.51" d="M492.597 690.422l61 398 148-147z"/>
        <path fill="#A697C7" d="M253.597 771.422l-76 309 376 8z"/>
        <path stroke="#A697C7" stroke-width="1.51" d="M253.597 771.422l-76 309 376 8z"/>
        <path fill="#A09FCB" d="M492.597 690.422l-239 81 300 317z"/>
        <path stroke="#A09FCB" stroke-width="1.51" d="M492.597 690.422l-239 81 300 317z"/>
        <path fill="#C1D4E7" d="M191.597-20.578l230 200 150-217z"/>
        <path stroke="#C1D4E7" stroke-width="1.51" d="M191.597-20.578l230 200 150-217z"/>
        <path fill="#AAC1DD" d="M421.597 179.422l-187 391 192 19z"/>
        <path stroke="#AAC1DD" stroke-width="1.51" d="M421.597 179.422l-187 391 192 19z"/>
        <path fill="#B4CBE2" d="M198.597 193.422l36 377 187-391z"/>
        <path stroke="#B4CBE2" stroke-width="1.51" d="M198.597 193.422l36 377 187-391z"/>
        <path fill="#A2AED2" d="M426.597 589.422l-173 182 239-81z"/>
        <path stroke="#A2AED2" stroke-width="1.51" d="M426.597 589.422l-173 182 239-81z"/>
        <path fill="#C2D5E7" d="M191.597-20.578l7 214 223-14z"/>
        <path stroke="#C2D5E7" stroke-width="1.51" d="M191.597-20.578l7 214 223-14z"/>
        <path fill="#A6B4D6" d="M234.597 570.422l19 201 173-182z"/>
        <path stroke="#A6B4D6" stroke-width="1.51" d="M234.597 570.422l19 201 173-182z"/>
        <path fill="#B3C7E1" d="M198.597 193.422l-137 408 173-31z"/>
        <path stroke="#B3C7E1" stroke-width="1.51" d="M198.597 193.422l-137 408 173-31z"/>
        <path fill="#ADA5CF" d="M76.597 775.422l101 305 76-309z"/>
        <path stroke="#ADA5CF" stroke-width="1.51" d="M76.597 775.422l101 305 76-309z"/>
        <path fill="#B1A1CD" d="M76.597 775.422l-114 260 215 45z"/>
        <path stroke="#B1A1CD" stroke-width="1.51" d="M76.597 775.422l-114 260 215 45z"/>
        <path fill="#BFD3E6" d="M-83.403 163.422l145 438 137-408z"/>
        <path stroke="#BFD3E6" stroke-width="1.51" d="M-83.403 163.422l145 438 137-408z"/>
        <path fill="#ACB8D8" d="M234.597 570.422l-173 31 192 170z"/>
        <path stroke="#ACB8D8" stroke-width="1.51" d="M234.597 570.422l-173 31 192 170z"/>
        <path fill="#AFB4D6" d="M61.597 601.422l15 174 177-4z"/>
        <path stroke="#AFB4D6" stroke-width="1.51" d="M61.597 601.422l15 174 177-4z"/>
        <path fill="#C2D5E8" d="M-83.403 163.422l-141 180 286 258z"/>
        <path stroke="#C2D5E8" stroke-width="1.51" d="M-83.403 163.422l-141 180 286 258z"/>
        <path fill="#CCDCEC" d="M191.597-20.578l-264 105 271 109z"/>
        <path stroke="#CCDCEC" stroke-width="1.51" d="M191.597-20.578l-264 105 271 109z"/>
        <path fill="#CCDCEC" d="M-72.403 84.422l-11 79 282 30z"/>
        <path stroke="#CCDCEC" stroke-width="1.51" d="M-72.403 84.422l-11 79 282 30z"/>
        <path fill="#D6E4F0" d="M76.597-196.578l-149 281 264-105z"/>
        <path stroke="#D6E4F0" stroke-width="1.51" d="M76.597-196.578l-149 281 264-105z"/>
        <path fill="#C0CFE5" d="M-224.403 343.422l-45 131 331 127z"/>
        <path stroke="#C0CFE5" stroke-width="1.51" d="M-224.403 343.422l-45 131 331 127z"/>
        <path fill="#E3EDF6" d="M-295.403-329.578l223 414 149-281z"/>
        <path stroke="#E3EDF6" stroke-width="1.51" d="M-295.403-329.578l223 414 149-281z"/>
        <path fill="#B7B7D9" d="M61.597 601.422l-355 245 370-71z"/>
        <path stroke="#B7B7D9" stroke-width="1.51" d="M61.597 601.422l-355 245 370-71z"/>
        <path fill="#B8ACD3" d="M-293.403 846.422l256 189 114-260z"/>
        <path stroke="#B8ACD3" stroke-width="1.51" d="M-293.403 846.422l256 189 114-260z"/>
        <path fill="#BAC3DE" d="M-269.403 474.422l-24 372 355-245z"/>
        <path stroke="#BAC3DE" stroke-width="1.51" d="M-269.403 474.422l-24 372 355-245z"/>
    </g>
</svg>
