<?xml version="1.0" encoding="utf-8"?>
<!-- Generator: Adobe Illustrator 16.0.0, SVG Export Plug-In . SVG Version: 6.00 Build 0)  -->
<!DOCTYPE svg PUBLIC "-//W3C//DTD SVG 1.1//EN" "http://www.w3.org/Graphics/SVG/1.1/DTD/svg11.dtd">
<svg version="1.1" id="Layer_1" xmlns="http://www.w3.org/2000/svg" xmlns:xlink="http://www.w3.org/1999/xlink" x="0px" y="0px"
	 width="126.167px" height="127px" viewBox="0 0 126.167 127" enable-background="new 0 0 126.167 127" xml:space="preserve">
<g>
	<path fill="#00437A" d="M159.36,30.196v11.962h-3.837V30.196h-4.506v-3.093h12.891v3.093H159.36z M169.342,30.13v2.987h7.2v3.006
		h-7.2v3.029h8.213v3.007h-12.05V27.125h11.812v3.006L169.342,30.13z M189.97,42.158v-5.84h-6.25v5.84h-3.837V27.125h3.837v6.184
		h6.25v-6.184h3.837v15.033H189.97z M207.371,42.158l-6.94-9.255v9.255h-3.6V27.125h3.384l6.962,9.278v-9.278h3.578v15.033H207.371z
		 M213.806,42.158h3.838V27.125h-3.838V42.158z M225.955,22.357l1.315,1.975l1.315-1.975h2.91l-2.608,3.521h-3.232l-2.61-3.521
		H225.955z M233.759,29.531l-2.22,2.619c-0.992-1.202-2.458-1.954-3.794-1.954c-2.393,0-4.205,1.889-4.205,4.36
		c0,2.513,1.812,4.423,4.205,4.423c1.27,0,2.737-0.687,3.793-1.76l2.242,2.362c-1.616,1.655-4.01,2.749-6.23,2.749
		c-4.547,0-7.932-3.329-7.932-7.732c0-4.338,3.47-7.603,8.062-7.603C229.922,26.995,232.25,27.984,233.759,29.531L233.759,29.531z
		 M241.305,36.252l-2.005,2.212v3.695h-3.837V27.124h3.837v6.509l5.777-6.509h4.44l-5.604,6.229l5.97,8.806h-4.59L241.305,36.252z"
		/>
	<path fill="#00437A" d="M253.439,34.641c0,2.535,1.963,4.49,4.271,4.49c2.327,0,4.181-1.955,4.181-4.49
		c0-2.534-1.854-4.445-4.182-4.445c-2.329,0-4.268,1.911-4.268,4.445 M265.836,34.621c0,4.38-3.493,7.71-8.17,7.71
		c-4.656,0-8.148-3.308-8.148-7.71c0-4.382,3.492-7.625,8.148-7.625C262.343,26.996,265.836,30.26,265.836,34.621 M277.17,42.158
		l-5.861-15.033h4.094l3.861,11.06l3.857-11.06h3.943l-5.926,15.033H277.17z M292.488,30.13v2.987h7.199v3.006h-7.199v3.029h8.212
		v3.007h-12.05V27.125h11.813v3.006L292.488,30.13z M313.268,38.958v3.2h-10.24V27.125h3.838v11.834L313.268,38.958z M318.843,30.13
		v2.987h7.2v3.006h-7.2v3.029h8.214v3.007h-12.051V27.125h11.813v3.006L318.843,30.13z"/>
	<g>
		<path fill="#00437A" d="M342.773,35.844c0,3.974-2.652,6.486-6.877,6.486c-4.246,0-6.963-2.512-6.963-6.486v-8.72h3.836v8.72
			c0,2.041,1.316,3.286,3.148,3.286c1.811,0,3.04-1.245,3.04-3.286v-8.72h3.815V35.844z M350.883,22.357l1.315,1.975l1.315-1.975
			h2.909l-2.608,3.521h-3.232l-2.609-3.521H350.883L350.883,22.357z M358.686,29.531l-2.22,2.619
			c-0.991-1.202-2.458-1.954-3.794-1.954c-2.393,0-4.205,1.889-4.205,4.36c0,2.513,1.813,4.423,4.205,4.423
			c1.27,0,2.737-0.687,3.793-1.76l2.242,2.362c-1.616,1.655-4.01,2.749-6.23,2.749c-4.547,0-7.931-3.329-7.931-7.732
			c0-4.338,3.47-7.603,8.06-7.603C354.85,26.995,357.176,27.984,358.686,29.531L358.686,29.531z"/>
	</g>
	<path fill="#00437A" d="M360.242,42.158h3.837V27.125h-3.837V42.158z M377.337,38.958v3.2h-10.239V27.125h3.838v11.834
		L377.337,38.958z M379.122,42.158h3.838V27.125h-3.838V42.158z M390.227,22.357l1.313,1.975l1.315-1.975h2.91l-2.607,3.521h-3.234
		l-2.607-3.521H390.227z M397.576,28.627l-1.444,2.986c-1.595-0.923-3.6-1.568-4.827-1.568c-0.992,0-1.66,0.366-1.66,1.096
		c0,2.599,7.976,1.117,7.976,6.551c0,3.006-2.673,4.595-6.036,4.595c-2.521,0-5.109-0.944-6.896-2.404l1.485-2.944
		c1.554,1.353,3.88,2.256,5.455,2.256c1.206,0,1.96-0.452,1.96-1.31c0-2.663-7.974-1.074-7.974-6.4c0-2.772,2.392-4.533,6.014-4.533
		C393.804,26.952,396.025,27.619,397.576,28.627L397.576,28.627z M406.998,30.196v11.962h-3.837V30.196h-4.505v-3.093h12.89v3.093
		H406.998z M417.025,30.13v2.987h7.2v3.006h-7.2v3.029h8.213v3.007h-12.051V27.125H425v3.006L417.025,30.13z"/>
	<g transform="translate(0 .373)">
		<path fill="#00437A" d="M446.305,35.471c0,3.973-2.651,6.486-6.877,6.486c-4.245,0-6.962-2.513-6.962-6.486v-8.72h3.836v8.72
			c0,2.04,1.316,3.286,3.148,3.286c1.81,0,3.04-1.245,3.04-3.286v-8.72h3.814V35.471z M154.07,83.074c0,2.881,2.39,5.16,5.24,5.16
			c2.849,0,5.178-2.278,5.178-5.16c0-2.881-2.33-5.117-5.178-5.117C156.44,77.957,154.07,80.195,154.07,83.074 M167.004,83.074
			c0,4.145-3.37,7.355-7.715,7.355c-4.346,0-7.715-3.211-7.715-7.355c0-4.164,3.369-7.313,7.715-7.313
			C163.635,75.761,167.004,78.932,167.004,83.074 M172.078,78.02v4.186h6.613v2.175h-6.613v5.946h-2.454V75.822h9.775l-0.022,2.197
			H172.078z M192.665,78.434l-2.744,6.443h5.49L192.665,78.434z M189.006,87.053l-1.393,3.274h-2.558l6.426-14.503h2.516
			l6.363,14.503h-2.62l-1.393-3.275L189.006,87.053L189.006,87.053z M204.749,83.76h3.244c2.246,0,3.514-0.953,3.514-2.923
			c0-1.905-1.268-2.817-3.514-2.817h-3.244V83.76L204.749,83.76z M208.096,75.822c3.66,0,5.761,1.804,5.761,4.953
			c0,3.273-2.1,5.18-5.76,5.18h-3.348v4.372h-2.455V75.822H208.096z M218.744,83.76h3.244c2.247,0,3.515-0.953,3.515-2.923
			c0-1.905-1.268-2.817-3.515-2.817h-3.244V83.76L218.744,83.76z M222.092,75.822c3.66,0,5.76,1.804,5.76,4.953
			c0,3.273-2.1,5.18-5.76,5.18h-3.348v4.372h-2.455V75.822H222.092L222.092,75.822z M239.04,88.109v2.217h-8.755V75.824h2.454
			v12.285H239.04z"/>
		<defs>
			<filter id="Adobe_OpacityMaskFilter" filterUnits="userSpaceOnUse" x="241.39" y="75.72" width="143.43" height="14.712">
				<feColorMatrix  type="matrix" values="1 0 0 0 0  0 1 0 0 0  0 0 1 0 0  0 0 0 1 0"/>
			</filter>
		</defs>
		<mask maskUnits="userSpaceOnUse" x="241.39" y="75.72" width="143.43" height="14.712" id="b">
			<g filter="url(#Adobe_OpacityMaskFilter)">
				<path id="a" fill="#FFFFFF" d="M0,126.045h483.605V0.582H0V126.045z"/>
			</g>
		</mask>
		<path mask="url(#b)" fill="#00437A" d="M241.39,90.327h2.456V75.824h-2.456V90.327z M250.125,78.02v3.916h7.111v2.196h-7.111
			v3.999h8.193v2.195H247.67V75.822h10.398v2.197H250.125z M263.768,88.13h3.576c2.828,0,4.99-2.092,4.99-5.034
			c0-2.963-2.225-5.076-5.096-5.076h-3.471V88.13L263.768,88.13z M267.281,75.822c4.367,0,7.527,3.047,7.527,7.252
			c0,4.187-3.181,7.252-7.59,7.252h-5.906V75.822H267.281L267.281,75.822z M292.673,77.212l-1.019,2.153
			c-1.58-0.952-3.16-1.346-4.264-1.346c-1.436,0-2.369,0.539-2.369,1.512c0,3.17,7.859,1.473,7.838,6.693
			c0,2.59-2.286,4.184-5.489,4.184c-2.197-0.012-4.313-0.83-5.947-2.299l1.06-2.113c1.498,1.367,3.369,2.113,4.931,2.113
			c1.704,0,2.723-0.643,2.723-1.762c0-3.23-7.86-1.43-7.86-6.588c0-2.486,2.142-4.04,5.303-4.04
			C289.471,75.72,291.322,76.32,292.673,77.212 M307.708,77.999l-1.435,1.782c-1.061-1.141-2.578-1.844-4.057-1.844
			c-2.91,0-5.197,2.236-5.197,5.096s2.287,5.117,5.197,5.117c1.457,0,2.954-0.662,4.057-1.719l1.455,1.615
			c-1.477,1.45-3.576,2.385-5.635,2.385c-4.264,0-7.57-3.214-7.57-7.377c0-4.123,3.349-7.294,7.653-7.294
			C304.236,75.761,306.294,76.611,307.708,77.999 M310.225,90.327h2.455V75.824h-2.455V90.327z M318.96,78.02v3.916h7.112v2.196
			h-7.113v3.999h8.193v2.195h-10.647V75.822h10.397v2.197H318.96z M340.359,90.327l-7.76-10.402v10.402h-2.453V75.824h2.412
			l7.799,10.422V75.824h2.412v14.502L340.359,90.327z M358.596,77.999l-1.435,1.782c-1.06-1.141-2.578-1.844-4.056-1.844
			c-2.91,0-5.197,2.236-5.197,5.096s2.285,5.117,5.197,5.117c1.457,0,2.953-0.662,4.056-1.719l1.455,1.615
			c-1.476,1.45-3.576,2.385-5.636,2.385c-4.264,0-7.569-3.214-7.569-7.377c0-4.123,3.349-7.294,7.653-7.294
			C355.124,75.761,357.182,76.611,358.596,77.999 M363.566,78.02v3.916h7.112v2.196h-7.112v3.999h8.193v2.195h-10.648V75.822h10.399
			v2.197H363.566z M384.633,77.212l-1.019,2.153c-1.58-0.952-3.16-1.346-4.265-1.346c-1.434,0-2.369,0.539-2.369,1.512
			c0,3.17,7.86,1.473,7.84,6.693c0,2.59-2.287,4.184-5.489,4.184c-2.197-0.012-4.313-0.829-5.948-2.299l1.061-2.113
			c1.498,1.367,3.369,2.113,4.93,2.113c1.704,0,2.723-0.643,2.723-1.762c0-3.23-7.859-1.43-7.859-6.588
			c0-2.486,2.141-4.04,5.302-4.04C381.43,75.72,383.282,76.32,384.633,77.212"/>
	</g>
	<path fill="#00437A" d="M156.6,63.801h8.192v3.028H151.47v-2.45l8.084-9.555h-7.804v-3.029h12.913v2.449L156.6,63.801z
		 M174.264,55.597l-2.199,5.562h4.354L174.264,55.597z M170.944,64.059l-1.099,2.771H165.9l6.51-15.034h3.945l6.358,15.034h-4.095
		l-1.078-2.771H170.944z"/>
	<g>
		<path fill="#00437A" d="M196.673,59.183v5.863c-1.617,1.138-4.161,1.955-6.274,1.955c-4.59,0-8.06-3.308-8.06-7.689
			c0-4.36,3.556-7.646,8.32-7.646c2.24,0,4.612,0.859,6.165,2.234l-2.156,2.598c-1.1-1.008-2.63-1.632-4.03-1.632
			c-2.48,0-4.377,1.933-4.377,4.446c0,2.556,1.919,4.489,4.42,4.489c0.776,0,1.767-0.28,2.672-0.73v-3.888H196.673L196.673,59.183z
			 M206.081,59.59c1.66,0,2.63-0.837,2.63-2.426c0-1.568-0.97-2.363-2.63-2.363h-2.91v4.79L206.081,59.59L206.081,59.59z
			 M206.189,62.598h-3.019v4.23h-3.837V51.796h6.747c3.988,0,6.273,1.89,6.273,5.24c0,2.298-0.97,3.953-2.738,4.833l3.17,4.96
			h-4.356L206.189,62.598L206.189,62.598z"/>
	</g>
	<path fill="#00437A" d="M218.698,54.801v2.986h7.2v3.006h-7.2v3.03h8.213v3.006h-12.05V51.795h11.812v3.006H218.698z"/>
	<g>
		<path fill="#00437A" d="M233.052,63.887h3.103c1.423,0,2.308-0.623,2.308-1.697c0-1.01-0.885-1.632-2.308-1.632h-3.103V63.887z
			 M233.052,57.809h3.103c1.122,0,1.833-0.602,1.833-1.568c0-0.967-0.711-1.525-1.833-1.525h-3.103V57.809z M236.372,51.795
			c3.383,0,5.54,1.46,5.54,3.758c0,1.59-0.993,2.857-2.587,3.307c1.896,0.366,3.103,1.848,3.103,3.803
			c0,2.556-2.242,4.166-5.798,4.166h-7.394V51.795H236.372z M258.055,60.515c0,3.973-2.652,6.485-6.878,6.485
			c-4.245,0-6.962-2.512-6.962-6.485v-8.72h3.836v8.72c0,2.04,1.316,3.286,3.148,3.286c1.81,0,3.039-1.246,3.039-3.286v-8.72h3.815
			L258.055,60.515L258.055,60.515z"/>
	</g>
	<path fill="#00437A" d="M268.432,64.633h8.963v2.196h-12.289v-1.763l8.879-10.545h-8.609v-2.196h11.915v1.761L268.432,64.633z
		 M285.816,54.936l-2.744,6.443h5.49L285.816,54.936z M282.157,63.554l-1.394,3.275h-2.558l6.427-14.503h2.516l6.362,14.503h-2.618
		l-1.395-3.275H282.157L282.157,63.554z"/>
	<g transform="translate(0 .373)">
		<path fill="#00437A" d="M307.175,59.328v5.346c-1.476,1.119-3.659,1.885-5.655,1.885c-4.306,0-7.654-3.211-7.654-7.355
			c0-4.143,3.39-7.313,7.799-7.313c2.08,0,4.16,0.787,5.594,2.03l-1.393,1.804c-1.123-1.036-2.684-1.659-4.201-1.659
			c-2.975,0-5.303,2.26-5.303,5.138c0,2.901,2.35,5.16,5.324,5.16c1.08,0,2.309-0.373,3.348-0.997v-4.039H307.175z M316.554,59.888
			c2.246,0,3.534-0.953,3.534-2.922c0-1.906-1.288-2.818-3.534-2.818h-3.452v5.74H316.554z M317.219,62.063
			c-0.221,0.018-0.443,0.025-0.665,0.021h-3.452v4.371h-2.453V51.952h5.905c3.722,0,5.864,1.803,5.864,4.952
			c0,2.321-1.08,3.958-3.016,4.704l3.267,4.847h-2.788L317.219,62.063z M328.137,54.148v3.916h7.113v2.196h-7.113v4h8.194v2.196
			h-10.647V51.952h10.397v2.196H328.137z M341.78,64.279h3.741c1.914,0,3.059-0.746,3.059-2.112c0-1.285-1.145-2.051-3.059-2.051
			h-3.741V64.279z M341.78,57.96h3.741c1.561,0,2.498-0.724,2.498-1.947c0-1.223-0.937-1.885-2.498-1.885h-3.741V57.96L341.78,57.96
			z M345.648,51.952c3.015,0,4.887,1.367,4.887,3.626c0,1.637-0.979,2.859-2.559,3.231c1.955,0.333,3.121,1.72,3.121,3.668
			c0,2.487-2.019,3.978-5.305,3.978h-6.468V51.952H345.648z M371.746,60.447c0,3.792-2.391,6.112-6.322,6.112
			c-3.93,0-6.342-2.32-6.342-6.112v-8.494h2.454v8.494c0,2.445,1.519,3.917,3.91,3.917c2.37,0,3.846-1.45,3.846-3.917v-8.494h2.454
			V60.447L371.746,60.447z M385.473,66.455l-7.759-10.401v10.401h-2.453V51.953h2.412l7.8,10.421V51.953h2.411v14.502H385.473z"/>
		<defs>
			<filter id="Adobe_OpacityMaskFilter_1_" filterUnits="userSpaceOnUse" x="0" y="0.58" width="483.605" height="125.464">
				<feColorMatrix  type="matrix" values="1 0 0 0 0  0 1 0 0 0  0 0 1 0 0  0 0 0 1 0"/>
			</filter>
		</defs>
		<mask maskUnits="userSpaceOnUse" x="0" y="0.58" width="483.605" height="125.464" id="d">
			<g filter="url(#Adobe_OpacityMaskFilter_1_)">
				<path id="c" fill="#FFFFFF" d="M0,126.045h483.605V0.582H0V126.045z"/>
			</g>
		</mask>
		<path mask="url(#d)" fill="#00437A" d="M391.73,66.455h2.455V51.953h-2.455V66.455z M401.962,66.455l-5.802-14.502h2.64
			l4.494,11.787l4.532-11.787h2.558l-5.886,14.502H401.962z M414.814,54.148v3.916h7.111v2.196h-7.111v4h8.192v2.196h-10.647V51.952
			h10.4v2.196H414.814z M431.908,59.888c2.247,0,3.535-0.953,3.535-2.922c0-1.906-1.288-2.818-3.535-2.818h-3.452v5.74H431.908z
			 M432.573,62.063c-0.207,0.021-0.437,0.021-0.665,0.021h-3.452v4.371h-2.454V51.952h5.906c3.723,0,5.865,1.803,5.865,4.952
			c0,2.321-1.081,3.958-3.017,4.704l3.267,4.847h-2.787L432.573,62.063z M450.915,53.34l-1.019,2.155
			c-1.579-0.953-3.16-1.346-4.264-1.346c-1.435,0-2.37,0.538-2.37,1.512c0,3.17,7.86,1.472,7.841,6.692
			c0,2.59-2.287,4.185-5.49,4.185c-2.197-0.013-4.313-0.831-5.947-2.3l1.06-2.113c1.498,1.368,3.368,2.113,4.93,2.113
			c1.705,0,2.724-0.642,2.724-1.761c0-3.231-7.861-1.43-7.861-6.589c0-2.486,2.143-4.039,5.304-4.039
			C447.712,51.849,449.564,52.449,450.915,53.34 M453.972,66.455h2.454V51.953h-2.454V66.455z M465.576,54.148v12.308h-2.454V54.148
			h-4.595v-2.196h11.666v2.196H465.576z M478.262,66.455h-2.433v-4.744l-5.428-9.758h2.475l4.16,7.064l4.076-7.064h2.493
			l-5.344,9.675V66.455z M99.189,32.664h-9.487l-5.75,18.427l-5.846-18.427h-9.968l10.639,28.071h9.679L99.189,32.664z
			 M66.509,32.664h-25.3v7.352h7.954v20.72h9.296v-20.72h8.05V32.664z M125.831,60.735c0,0.86,0.096,1.718,0.096,2.579
			c0,34.661-28.176,62.73-62.963,62.73C28.175,126.045,0,97.975,0,63.315C0,28.655,28.175,0.58,62.964,0.58
			c22.813-0.039,43.861,12.273,55.008,32.178h-16.866v7.162h12.65l-13.13,15.085v5.825h25.205V60.735L125.831,60.735z
			 M112.989,53.669l9.488-10.885c1.245,3.533,2.108,7.162,2.683,10.885H112.989L112.989,53.669z"/>
	</g>
</g>
</svg>
