<svg xmlns="http://www.w3.org/2000/svg" xmlns:xlink="http://www.w3.org/1999/xlink" width="484" height="127" viewBox="0 0 484 127">
    <defs>
        <path id="a" d="M0 126.045h483.606V.582H0z"/>
        <path id="c" d="M0 126.045h483.606V.582H0z"/>
    </defs>
    <g fill="none" fill-rule="evenodd">
        <path fill="#00437A" d="M159.36 30.196v11.962h-3.837V30.196h-4.506v-3.093h12.891v3.093zM169.342 30.13v2.987h7.2v3.006h-7.2v3.029h8.213v3.007h-12.05V27.125h11.812v3.006zM189.97 42.158v-5.84h-6.25v5.84h-3.837V27.125h3.837v6.184h6.25v-6.184h3.837v15.033zM207.371 42.158l-6.94-9.255v9.255h-3.6V27.125h3.384l6.962 9.278v-9.278h3.578v15.033zM213.806 42.158h3.838V27.125h-3.838zM225.955 22.357l1.315 1.975 1.315-1.975h2.91l-2.608 3.521h-3.232l-2.61-3.521h2.91zm7.804 7.174l-2.22 2.619c-.992-1.202-2.458-1.954-3.794-1.954-2.393 0-4.205 1.889-4.205 4.36 0 2.513 1.812 4.423 4.205 4.423 1.27 0 2.737-.687 3.793-1.76l2.242 2.362c-1.616 1.655-4.01 2.749-6.23 2.749-4.547 0-7.932-3.329-7.932-7.732 0-4.338 3.47-7.603 8.062-7.603 2.242 0 4.57.989 6.079 2.536zM241.305 36.252l-2.005 2.212v3.695h-3.837V27.124h3.837v6.509l5.777-6.509h4.44l-5.604 6.229 5.97 8.806h-4.59z"/>
        <path fill="#00437A" d="M253.44 34.641c0 2.535 1.962 4.49 4.27 4.49 2.327 0 4.181-1.955 4.181-4.49 0-2.534-1.854-4.445-4.182-4.445-2.329 0-4.268 1.911-4.268 4.445m12.395-.02c0 4.38-3.493 7.71-8.17 7.71-4.656 0-8.148-3.308-8.148-7.71 0-4.382 3.492-7.625 8.148-7.625 4.677 0 8.17 3.264 8.17 7.624M277.17 42.158l-5.862-15.033h4.095l3.86 11.06 3.858-11.06h3.944l-5.927 15.033zM292.488 30.13v2.987h7.2v3.006h-7.2v3.029h8.212v3.007h-12.05V27.125h11.813v3.006zM313.267 38.958v3.2h-10.24V27.125h3.838v11.834zM318.843 30.13v2.987h7.2v3.006h-7.2v3.029h8.213v3.007h-12.05V27.125h11.812v3.006z"/>
        <g fill="#00437A">
            <path d="M342.773 35.844c0 3.974-2.652 6.486-6.877 6.486-4.246 0-6.962-2.512-6.962-6.486v-8.72h3.836v8.72c0 2.041 1.316 3.286 3.148 3.286 1.81 0 3.04-1.245 3.04-3.286v-8.72h3.815v8.72zM350.883 22.357l1.315 1.975 1.315-1.975h2.91l-2.609 3.521h-3.232l-2.61-3.521h2.91zm7.803 7.174l-2.22 2.619c-.992-1.202-2.458-1.954-3.794-1.954-2.393 0-4.205 1.889-4.205 4.36 0 2.513 1.812 4.423 4.205 4.423 1.27 0 2.737-.687 3.793-1.76l2.242 2.362c-1.616 1.655-4.01 2.749-6.23 2.749-4.547 0-7.931-3.329-7.931-7.732 0-4.338 3.47-7.603 8.06-7.603 2.244 0 4.57.989 6.08 2.536z"/>
        </g>
        <path fill="#00437A" d="M360.242 42.158h3.837V27.125h-3.837zM377.337 38.958v3.2h-10.24V27.125h3.838v11.834zM379.122 42.158h3.838V27.125h-3.838zM390.226 22.357l1.314 1.975 1.315-1.975h2.911l-2.608 3.521h-3.234l-2.608-3.521h2.91zm7.35 6.27l-1.444 2.986c-1.595-.923-3.6-1.568-4.828-1.568-.991 0-1.66.366-1.66 1.096 0 2.599 7.976 1.117 7.976 6.551 0 3.006-2.673 4.595-6.036 4.595-2.522 0-5.109-.944-6.897-2.404l1.486-2.944c1.553 1.353 3.88 2.256 5.455 2.256 1.206 0 1.96-.452 1.96-1.31 0-2.663-7.974-1.074-7.974-6.4 0-2.772 2.392-4.533 6.014-4.533 2.176 0 4.397.667 5.948 1.675zM406.998 30.196v11.962h-3.837V30.196h-4.505v-3.093h12.89v3.093zM417.026 30.13v2.987h7.2v3.006h-7.2v3.029h8.212v3.007h-12.05V27.125H425v3.006z"/>
        <g transform="translate(0 .373)">
            <path fill="#00437A" d="M446.305 35.471c0 3.973-2.652 6.486-6.877 6.486-4.245 0-6.962-2.513-6.962-6.486v-8.72h3.836v8.72c0 2.04 1.316 3.286 3.148 3.286 1.81 0 3.04-1.245 3.04-3.286v-8.72h3.815v8.72zM154.07 83.075c0 2.88 2.39 5.159 5.24 5.159 2.849 0 5.178-2.278 5.178-5.16 0-2.88-2.33-5.117-5.178-5.117-2.87 0-5.24 2.238-5.24 5.118m12.934 0c0 4.144-3.37 7.355-7.715 7.355-4.346 0-7.715-3.211-7.715-7.355 0-4.165 3.369-7.314 7.715-7.314s7.715 3.17 7.715 7.314M172.078 78.02v4.185h6.613v2.175h-6.613v5.947h-2.454V75.823h9.775l-.022 2.196zM192.665 78.433l-2.744 6.444h5.49l-2.746-6.444zm-3.659 8.62l-1.393 3.274h-2.558l6.426-14.503h2.516l6.363 14.503h-2.62l-1.393-3.275h-7.34zM204.749 83.76h3.244c2.246 0 3.514-.954 3.514-2.923 0-1.906-1.268-2.818-3.514-2.818h-3.244v5.74zm3.347-7.937c3.66 0 5.761 1.803 5.761 4.952 0 3.274-2.1 5.18-5.76 5.18h-3.348v4.372h-2.455V75.823h5.802zM218.744 83.76h3.244c2.247 0 3.515-.954 3.515-2.923 0-1.906-1.268-2.818-3.515-2.818h-3.244v5.74zm3.348-7.937c3.66 0 5.76 1.803 5.76 4.952 0 3.274-2.1 5.18-5.76 5.18h-3.348v4.372h-2.455V75.823h5.803zM239.04 88.11v2.216h-8.755V75.824h2.454V88.11z"/>
            <mask id="b" fill="#fff">
                <use xlink:href="#a"/>
            </mask>
            <path fill="#00437A" d="M241.39 90.327h2.455V75.824h-2.455zM250.125 78.02v3.915h7.112v2.197h-7.112v3.999h8.193v2.196H247.67V75.823h10.398v2.196zM263.767 88.13h3.577c2.828 0 4.99-2.092 4.99-5.034 0-2.963-2.224-5.077-5.095-5.077h-3.472v10.112zm3.514-12.307c4.368 0 7.528 3.046 7.528 7.252 0 4.186-3.181 7.252-7.59 7.252h-5.907V75.823h5.97zM292.673 77.212l-1.019 2.154c-1.58-.953-3.16-1.346-4.264-1.346-1.435 0-2.369.538-2.369 1.512 0 3.17 7.86 1.472 7.839 6.692 0 2.59-2.287 4.185-5.49 4.185a8.968 8.968 0 0 1-5.947-2.299l1.06-2.114c1.498 1.368 3.369 2.114 4.93 2.114 1.704 0 2.723-.643 2.723-1.762 0-3.231-7.86-1.43-7.86-6.588 0-2.487 2.141-4.04 5.302-4.04 1.892 0 3.744.6 5.095 1.492M307.708 77.999l-1.435 1.782c-1.06-1.14-2.578-1.844-4.056-1.844-2.91 0-5.197 2.237-5.197 5.096 0 2.86 2.287 5.118 5.197 5.118 1.457 0 2.954-.662 4.056-1.72l1.455 1.616c-1.476 1.45-3.576 2.384-5.634 2.384-4.264 0-7.57-3.213-7.57-7.377 0-4.122 3.348-7.293 7.653-7.293 2.059 0 4.117.85 5.531 2.238M310.225 90.327h2.454V75.824h-2.454zM318.96 78.02v3.915h7.112v2.197h-7.113v3.999h8.194v2.196h-10.648V75.823h10.398v2.196zM340.359 90.327L332.6 79.925v10.402h-2.453V75.824h2.412l7.799 10.422V75.824h2.412v14.503zM358.596 77.999l-1.435 1.782c-1.06-1.14-2.578-1.844-4.056-1.844-2.91 0-5.197 2.237-5.197 5.096 0 2.86 2.286 5.118 5.197 5.118 1.457 0 2.954-.662 4.056-1.72l1.455 1.616c-1.476 1.45-3.576 2.384-5.635 2.384-4.264 0-7.57-3.213-7.57-7.377 0-4.122 3.349-7.293 7.654-7.293 2.059 0 4.116.85 5.53 2.238M363.567 78.02v3.915h7.112v2.197h-7.112v3.999h8.193v2.196h-10.648V75.823h10.399v2.196zM384.633 77.212l-1.019 2.154c-1.58-.953-3.16-1.346-4.264-1.346-1.434 0-2.369.538-2.369 1.512 0 3.17 7.86 1.472 7.84 6.692 0 2.59-2.288 4.185-5.49 4.185a8.968 8.968 0 0 1-5.948-2.299l1.06-2.114c1.498 1.368 3.37 2.114 4.93 2.114 1.704 0 2.723-.643 2.723-1.762 0-3.231-7.86-1.43-7.86-6.588 0-2.487 2.141-4.04 5.302-4.04 1.892 0 3.744.6 5.095 1.492" mask="url(#b)"/>
        </g>
        <path fill="#00437A" d="M156.6 63.801h8.192v3.028H151.47v-2.45l8.084-9.555h-7.804v-3.029h12.913v2.449zM174.264 55.597l-2.199 5.562h4.354l-2.155-5.562zm-3.32 8.461l-1.099 2.771H165.9l6.51-15.034h3.945l6.358 15.034h-4.095l-1.078-2.771h-6.596z"/>
        <g fill="#00437A">
            <path d="M196.673 59.183v5.863c-1.617 1.138-4.161 1.955-6.274 1.955-4.59 0-8.06-3.308-8.06-7.689 0-4.36 3.556-7.646 8.32-7.646 2.24 0 4.612.859 6.165 2.234l-2.156 2.598c-1.1-1.008-2.63-1.632-4.03-1.632-2.48 0-4.377 1.933-4.377 4.446 0 2.556 1.919 4.489 4.42 4.489.776 0 1.767-.28 2.672-.73v-3.888h3.32zM206.081 59.59c1.66 0 2.63-.837 2.63-2.426 0-1.568-.97-2.363-2.63-2.363h-2.91v4.79h2.91zm.108 3.008H203.17v4.23h-3.837V51.796h6.747c3.988 0 6.273 1.89 6.273 5.24 0 2.298-.97 3.953-2.738 4.833l3.17 4.96h-4.356l-2.241-4.23z"/>
        </g>
        <path fill="#00437A" d="M218.698 54.801v2.986h7.2v3.006h-7.2v3.03h8.213v3.006h-12.05V51.795h11.812v3.006z"/>
        <g fill="#00437A">
            <path d="M233.052 63.887h3.103c1.423 0 2.308-.623 2.308-1.697 0-1.01-.885-1.632-2.308-1.632h-3.103v3.329zm0-6.078h3.103c1.122 0 1.833-.602 1.833-1.568 0-.967-.711-1.525-1.833-1.525h-3.103v3.093zm3.32-6.014c3.383 0 5.54 1.46 5.54 3.758 0 1.59-.993 2.857-2.587 3.307 1.896.366 3.103 1.848 3.103 3.803 0 2.556-2.242 4.166-5.798 4.166h-7.394V51.795h7.136zM258.054 60.515c0 3.973-2.652 6.485-6.877 6.485-4.245 0-6.962-2.512-6.962-6.485v-8.72h3.836v8.72c0 2.04 1.316 3.286 3.148 3.286 1.81 0 3.04-1.246 3.04-3.286v-8.72h3.815v8.72z"/>
        </g>
        <path fill="#00437A" d="M268.432 64.633h8.963v2.196h-12.29v-1.762l8.88-10.546h-8.61v-2.196h11.915v1.761zM285.817 54.936l-2.745 6.443h5.49l-2.745-6.443zm-3.66 8.618l-1.393 3.275h-2.558l6.427-14.503h2.515l6.363 14.503h-2.619l-1.394-3.275h-7.34z"/>
        <g transform="translate(0 .373)">
            <path fill="#00437A" d="M307.175 59.328v5.346c-1.476 1.119-3.66 1.885-5.656 1.885-4.305 0-7.654-3.212-7.654-7.356 0-4.143 3.39-7.313 7.799-7.313 2.08 0 4.16.787 5.594 2.03l-1.393 1.804c-1.123-1.036-2.683-1.659-4.201-1.659-2.974 0-5.302 2.26-5.302 5.138 0 2.901 2.349 5.16 5.323 5.16 1.08 0 2.309-.373 3.348-.996v-4.039h2.142zM316.554 59.888c2.246 0 3.534-.953 3.534-2.922 0-1.906-1.288-2.818-3.534-2.818h-3.452v5.74h3.452zm.665 2.175a6.805 6.805 0 0 1-.665.021h-3.452v4.371h-2.454V51.952h5.906c3.722 0 5.864 1.803 5.864 4.952 0 2.321-1.08 3.958-3.015 4.704l3.266 4.847h-2.788l-2.662-4.392zM328.137 54.148v3.916h7.113v2.196h-7.113v4h8.194v2.196h-10.648V51.952h10.398v2.196zM341.78 64.28h3.742c1.913 0 3.058-.746 3.058-2.113 0-1.285-1.145-2.051-3.058-2.051h-3.742v4.164zm0-6.32h3.742c1.56 0 2.497-.724 2.497-1.947s-.936-1.885-2.497-1.885h-3.742v3.833zm3.868-6.008c3.015 0 4.887 1.367 4.887 3.626 0 1.637-.978 2.859-2.558 3.231 1.955.333 3.12 1.72 3.12 3.668 0 2.487-2.018 3.978-5.304 3.978h-6.468V51.952h6.323zM371.746 60.447c0 3.792-2.391 6.112-6.322 6.112-3.93 0-6.342-2.32-6.342-6.112v-8.494h2.454v8.494c0 2.445 1.518 3.916 3.91 3.916 2.37 0 3.846-1.45 3.846-3.916v-8.494h2.454v8.494zM385.472 66.455l-7.758-10.401v10.401h-2.453V51.953h2.412l7.799 10.421V51.953h2.412v14.502z"/>
            <mask id="d" fill="#fff">
                <use xlink:href="#c"/>
            </mask>
            <path fill="#00437A" d="M391.73 66.455h2.455V51.953h-2.455zM401.962 66.455l-5.802-14.502h2.64l4.494 11.788 4.532-11.788h2.558l-5.886 14.502zM414.814 54.148v3.916h7.112v2.196h-7.112v4h8.193v2.196H412.36V51.952h10.4v2.196zM431.908 59.888c2.247 0 3.535-.953 3.535-2.922 0-1.906-1.288-2.818-3.535-2.818h-3.452v5.74h3.452zm.665 2.175c-.207.021-.436.021-.665.021h-3.452v4.371h-2.454V51.952h5.906c3.723 0 5.865 1.803 5.865 4.952 0 2.321-1.081 3.958-3.016 4.704l3.266 4.847h-2.787l-2.663-4.392zM450.915 53.34l-1.018 2.155c-1.58-.953-3.161-1.346-4.264-1.346-1.435 0-2.37.538-2.37 1.512 0 3.17 7.86 1.472 7.84 6.692 0 2.59-2.287 4.185-5.49 4.185a8.968 8.968 0 0 1-5.947-2.3l1.06-2.113c1.498 1.368 3.368 2.114 4.929 2.114 1.705 0 2.724-.643 2.724-1.762 0-3.231-7.861-1.43-7.861-6.589 0-2.486 2.142-4.039 5.303-4.039 1.891 0 3.743.6 5.094 1.492M453.972 66.455h2.454V51.953h-2.454zM465.576 54.148v12.308h-2.454V54.148h-4.595v-2.196h11.666v2.196zM478.262 66.455h-2.433v-4.744l-5.428-9.758h2.475l4.16 7.064 4.076-7.064h2.494l-5.344 9.675zM99.189 32.664h-9.487l-5.75 18.427-5.846-18.427h-9.968l10.639 28.071h9.679l10.733-28.071zm-32.68 0h-25.3v7.352h7.954v20.72h9.296v-20.72h8.05v-7.352zm59.322 28.071c0 .86.096 1.718.096 2.579 0 34.66-28.176 62.73-62.963 62.73C28.175 126.045 0 97.975 0 63.315S28.175.58 62.964.58a62.924 62.924 0 0 1 55.008 32.178h-16.866v7.162h12.65l-13.13 15.085v5.825h25.205v-.096zm-12.842-7.066l9.488-10.885c1.245 3.533 2.108 7.162 2.683 10.885h-12.17z" mask="url(#d)"/>
        </g>
    </g>
</svg>
